<svg width="40" height="40" viewBox="0 0 40 40" fill="none" xmlns="http://www.w3.org/2000/svg">
<path d="M36.6667 26.9835C36.6667 33.0502 33.05 36.6668 26.9833 36.6668H25C24.0833 36.6668 23.3333 35.9168 23.3333 35.0002V25.3835C23.3333 24.9335 23.7 24.5502 24.15 24.5502L27.0833 24.5002C27.3167 24.4835 27.5167 24.3169 27.5667 24.0835L28.15 20.9002C28.2 20.6002 27.9667 20.3168 27.65 20.3168L24.1 20.3668C23.6333 20.3668 23.2667 20.0002 23.25 19.5502L23.1833 15.4668C23.1833 15.2002 23.4 14.9668 23.6833 14.9668L27.6833 14.9002C27.9666 14.9002 28.1833 14.6835 28.1833 14.4002L28.1167 10.4001C28.1167 10.1168 27.9 9.90017 27.6167 9.90017L23.1167 9.96685C20.35 10.0168 18.15 12.2835 18.2 15.0502L18.2833 19.6335C18.3 20.1002 17.9334 20.4668 17.4667 20.4835L15.4667 20.5168C15.1833 20.5168 14.9667 20.7335 14.9667 21.0168L15.0167 24.1835C15.0167 24.4668 15.2333 24.6835 15.5167 24.6835L17.5167 24.6502C17.9833 24.6502 18.35 25.0168 18.3666 25.4668L18.5166 34.9668C18.5333 35.9002 17.7833 36.6668 16.85 36.6668H13.0167C6.95 36.6668 3.33333 33.0502 3.33333 26.9668V13.0168C3.33333 6.95016 6.95 3.3335 13.0167 3.3335H26.9833C33.05 3.3335 36.6667 6.95016 36.6667 13.0168V26.9835Z" fill="#FFCC00"/>
</svg>
