<svg width="25" height="25" viewBox="0 0 25 25" fill="none" xmlns="http://www.w3.org/2000/svg">
<path fill-rule="evenodd" clip-rule="evenodd" d="M12.5 3.90625C9.47969 3.90625 7.03125 6.35469 7.03125 9.375C7.03125 12.3953 9.47969 14.8438 12.5 14.8438C15.5203 14.8438 17.9688 12.3953 17.9688 9.375C17.9688 6.35469 15.5203 3.90625 12.5 3.90625ZM5.46875 9.375C5.46875 5.49175 8.61675 2.34375 12.5 2.34375C16.3833 2.34375 19.5312 5.49175 19.5312 9.375C19.5312 13.2583 16.3833 16.4062 12.5 16.4062C8.61675 16.4062 5.46875 13.2583 5.46875 9.375Z" fill="#FFCC00"/>
<path fill-rule="evenodd" clip-rule="evenodd" d="M12.5 16.4053C10.7171 16.4053 8.96552 16.8746 7.42148 17.7662C5.87744 18.6577 4.5953 19.94 3.70397 21.4842C3.48827 21.8579 3.01048 21.986 2.63679 21.7703C2.2631 21.5546 2.13503 21.0768 2.35073 20.7031C3.3792 18.9214 4.85858 17.4418 6.64017 16.4131C8.42175 15.3843 10.4428 14.8428 12.5 14.8428C14.5573 14.8428 16.5783 15.3843 18.3598 16.4131C20.1414 17.4418 21.6208 18.9214 22.6493 20.7031C22.865 21.0768 22.7369 21.5546 22.3632 21.7703C21.9895 21.986 21.5117 21.8579 21.296 21.4842C20.4047 19.94 19.1226 18.6577 17.5785 17.7662C16.0345 16.8746 14.283 16.4053 12.5 16.4053Z" fill="#FFCC00"/>
</svg>
