<svg width="43" height="43" viewBox="0 0 43 43" fill="none" xmlns="http://www.w3.org/2000/svg">
<path d="M39.3808 20.4429C38.7716 10.0512 29.3296 2.04249 18.4541 3.83416C10.965 5.07041 4.9629 11.1441 3.79832 18.6333C3.11749 22.9691 4.01336 27.072 5.96627 30.4583L4.37167 36.3887C4.01333 37.7325 5.24955 38.9508 6.57538 38.5745L12.4162 36.9621C15.0679 38.5208 18.1675 39.4166 21.4821 39.4166C31.5871 39.4166 39.972 30.5121 39.3808 20.4429ZM30.2433 28.165C30.0821 28.4875 29.885 28.7921 29.6341 29.0787C29.1862 29.5625 28.7024 29.9208 28.1649 30.1358C27.6274 30.3687 27.0362 30.4762 26.4091 30.4762C25.4954 30.4762 24.51 30.2612 23.4887 29.8133C22.4496 29.3654 21.4284 28.7741 20.4071 28.0395C19.3679 27.287 18.4004 26.445 17.4687 25.5312C16.5371 24.5995 15.7129 23.6141 14.9604 22.5929C14.2258 21.5716 13.6346 20.5504 13.2046 19.5291C12.7746 18.5079 12.5596 17.5225 12.5596 16.5908C12.5596 15.9816 12.6671 15.3904 12.8821 14.8529C13.0971 14.2975 13.4375 13.7958 13.9213 13.3479C14.4946 12.7746 15.1217 12.5058 15.7846 12.5058C16.0354 12.5058 16.2862 12.5596 16.5191 12.6671C16.752 12.7746 16.9671 12.9358 17.1283 13.1687L19.2066 16.107C19.3679 16.3399 19.4933 16.537 19.565 16.7341C19.6545 16.9312 19.6904 17.1104 19.6904 17.2895C19.6904 17.5045 19.6188 17.7196 19.4933 17.9346C19.3679 18.1496 19.2066 18.3645 18.9916 18.5795L18.3108 19.2962C18.2033 19.4037 18.1675 19.5112 18.1675 19.6546C18.1675 19.7262 18.1854 19.7979 18.2033 19.8695C18.2391 19.9412 18.2571 19.995 18.275 20.0487C18.4363 20.3533 18.7229 20.7295 19.117 21.1954C19.5291 21.6612 19.9592 22.145 20.425 22.6108C20.9088 23.0945 21.3746 23.5245 21.8583 23.9366C22.3242 24.3308 22.7183 24.5996 23.0229 24.7608C23.0766 24.7787 23.1304 24.8145 23.1842 24.8324C23.2558 24.8683 23.3275 24.8683 23.4171 24.8683C23.5783 24.8683 23.6859 24.8146 23.7934 24.7071L24.4741 24.0262C24.707 23.7933 24.9221 23.6321 25.1192 23.5246C25.3342 23.3991 25.5313 23.3274 25.7642 23.3274C25.9433 23.3274 26.1225 23.3633 26.3196 23.4529C26.5167 23.5425 26.7316 23.65 26.9466 23.8112L29.9208 25.9254C30.1538 26.0866 30.315 26.2837 30.4225 26.4987C30.512 26.7316 30.5658 26.9466 30.5658 27.1975C30.4583 27.502 30.3867 27.8425 30.2433 28.165Z" fill="#FFCC00"/>
</svg>
